<svg preserveAspectRatio="xMidYMid meet" data-bbox="0 0 512 512" xmlns="http://www.w3.org/2000/svg" viewBox="0 0 512 512" height="512" width="512" data-type="color" role="presentation" aria-hidden="true"><defs><style>#comp-lqazk7a4 svg [data-color="1"] {fill: #2F2E2E;}</style></defs>
    <g>
        <g clip-path="url(#f4df6cb2-c26e-4bf4-934d-5c19c8793f2b_comp-lqazk7a4)">
            <path d="M512 256C512 114.6 397.4 0 256 0S0 114.6 0 256s114.6 256 256 256c1.5 0 3 0 4.5-.1V312.7h-55v-64.1h55v-47.2c0-54.7 33.4-84.5 82.2-84.5 23.4 0 43.5 1.7 49.3 2.5v57.2h-33.6c-26.5 0-31.7 12.6-31.7 31.1v40.8h63.5l-8.3 64.1h-55.2v189.5C433.7 471.4 512 372.9 512 256Z" data-color="1"></path>
        </g>
        <defs fill="none">
            <clipPath id="f4df6cb2-c26e-4bf4-934d-5c19c8793f2b_comp-lqazk7a4">
                <path fill="#ffffff" d="M512 0v512H0V0h512z"></path>
            </clipPath>
        </defs>
    </g>
</svg>