<svg preserveAspectRatio="xMidYMid meet" data-bbox="6 6 500 500" xmlns="http://www.w3.org/2000/svg" viewBox="6 6 500 500" height="512" width="512" data-type="shape" role="presentation" aria-hidden="true" aria-label="">
    <g>
        <path d="M256 6C117.929 6 6 117.929 6 256s111.929 250 250 250 250-111.929 250-250S394.071 6 256 6Zm3.23 401.227c-27.993 0-53.83-7.48-76.439-19.237l-88.283 27.786 29.068-83.358c-13.995-23.512-22.608-51.3-22.608-80.152 0-86.565 71.056-156.03 158.262-156.03 87.206-1.069 158.262 68.4 158.262 154.961s-71.056 156.03-158.262 156.03Z"></path>
        <path d="M259.23 119.747c-73.209 0-133.5 58.778-133.5 131.45a127.416 127.416 0 0 0 25.84 76.946l-16.15 49.16 51.678-16.03a133.373 133.373 0 0 0 73.21 21.374c73.209 0 133.5-58.779 133.5-131.45-1.079-72.672-61.368-131.45-134.578-131.45Zm79.085 177.14L336.7 304.6a33.561 33.561 0 0 1-14.61 21.239c-9.572 6.011-21.865 9.017-37.583 4.609-48.666-13.726-76.173-45.784-90.985-65.821-14.812-20.037-20.554-40.074-16.826-56.4 2.519-10.92 10.579-19.436 15.617-23.744a12.824 12.824 0 0 1 8.968-3l10.378.6a5.388 5.388 0 0 1 4.635 3.306l15.113 35.264a5.404 5.404 0 0 1-.907 5.611l-13.2 15.127a3.943 3.943 0 0 0-.5 4.408c17.432 33.261 49.07 46.486 58.541 49.792a3.94 3.94 0 0 0 4.433-1.3l13.8-17.832a5.452 5.452 0 0 1 6.549-1.6l35.165 16.029a5.444 5.444 0 0 1 3.027 5.999Z"></path>
    </g>
</svg>